<!--?xml version="1.0" encoding="UTF-8" standalone="no"?-->

<!-- Generated by graphviz version 2.28.0 (20110507.0327)
 -->
<!-- Title: _anonymous_0 Pages: 1 -->
<svg width="3050pt" height="476pt" viewBox="0.00 0.00 3050.00 476.00" xmlns="http://www.w3.org/2000/svg" xmlns:xlink="http://www.w3.org/1999/xlink">
<g id="graph1" class="graph" transform="scale(1 1) rotate(0) translate(4 472)">
<title>_anonymous_0</title>
<polygon fill="white" stroke="white" points="-4,5 -4,-472 3047,-472 3047,5 -4,5"></polygon>
<!-- h1h2h3w1w2w3B|| -->
<g id="node1" class="node"><title>h1h2h3w1w2w3B||</title>
<ellipse fill="none" stroke="black" cx="465" cy="-450" rx="85.5614" ry="18"></ellipse>
<text text-anchor="middle" x="465" y="-445.8" font-family="Times,serif" font-size="14.00">h1h2h3w1w2w3B||</text>
</g>
<!-- h1h2h3w2w3||w1B -->
<g id="node2" class="node"><title>h1h2h3w2w3||w1B</title>
<ellipse fill="none" stroke="black" cx="85" cy="-378" rx="85.5614" ry="18"></ellipse>
<text text-anchor="middle" x="85" y="-373.8" font-family="Times,serif" font-size="14.00">h1h2h3w2w3||w1B</text>
</g>
<!-- h1h2h3w1w2w3B||&#45;&#45;h1h2h3w2w3||w1B -->
<g id="edge2" class="edge"><title>h1h2h3w1w2w3B||--h1h2h3w2w3||w1B</title>
<path fill="none" stroke="black" d="M403.101,-437.597C332.542,-424.6 217.867,-403.476 147.189,-390.456"></path>
</g>
<!-- h2h3w2w3||h1w1B -->
<g id="node3" class="node"><title>h2h3w2w3||h1w1B</title>
<ellipse fill="none" stroke="black" cx="1146" cy="-378" rx="85.5614" ry="18"></ellipse>
<text text-anchor="middle" x="1146" y="-373.8" font-family="Times,serif" font-size="14.00">h2h3w2w3||h1w1B</text>
</g>
<!-- h1h2h3w1w2w3B||&#45;&#45;h2h3w2w3||h1w1B -->
<g id="edge4" class="edge"><title>h1h2h3w1w2w3B||--h2h3w2w3||h1w1B</title>
<path fill="none" stroke="black" d="M545.819,-443.921C659.074,-436.296 871.298,-420.159 1051,-396 1062.13,-394.504 1073.94,-392.627 1085.31,-390.67"></path>
</g>
<!-- h1h2h3w1w3||w2B -->
<g id="node4" class="node"><title>h1h2h3w1w3||w2B</title>
<ellipse fill="none" stroke="black" cx="313" cy="-378" rx="85.5614" ry="18"></ellipse>
<text text-anchor="middle" x="313" y="-373.8" font-family="Times,serif" font-size="14.00">h1h2h3w1w3||w2B</text>
</g>
<!-- h1h2h3w1w2w3B||&#45;&#45;h1h2h3w1w3||w2B -->
<g id="edge6" class="edge"><title>h1h2h3w1w2w3B||--h1h2h3w1w3||w2B</title>
<path fill="none" stroke="black" d="M431.266,-433.465C406.165,-421.905 372.044,-406.191 346.902,-394.613"></path>
</g>
<!-- h1h3w1w3||h2w2B -->
<g id="node5" class="node"><title>h1h3w1w3||h2w2B</title>
<ellipse fill="none" stroke="black" cx="601" cy="-306" rx="85.5614" ry="18"></ellipse>
<text text-anchor="middle" x="601" y="-301.8" font-family="Times,serif" font-size="14.00">h1h3w1w3||h2w2B</text>
</g>
<!-- h1h2h3w1w2w3B||&#45;&#45;h1h3w1w3||h2w2B -->
<g id="edge8" class="edge"><title>h1h2h3w1w2w3B||--h1h3w1w3||h2w2B</title>
<path fill="none" stroke="black" d="M464.292,-431.66C464.409,-412.164 467.452,-380.551 484,-360 499.663,-340.547 524.016,-327.971 546.456,-319.978"></path>
</g>
<!-- h1h2h3w3||w1w2B -->
<g id="node6" class="node"><title>h1h2h3w3||w1w2B</title>
<ellipse fill="none" stroke="black" cx="957" cy="-378" rx="85.5614" ry="18"></ellipse>
<text text-anchor="middle" x="957" y="-373.8" font-family="Times,serif" font-size="14.00">h1h2h3w3||w1w2B</text>
</g>
<!-- h1h2h3w1w2w3B||&#45;&#45;h1h2h3w3||w1w2B -->
<g id="edge10" class="edge"><title>h1h2h3w1w2w3B||--h1h2h3w3||w1w2B</title>
<path fill="none" stroke="black" d="M537.22,-440.336C616.887,-430.55 748.812,-413.674 862,-396 872.76,-394.32 884.181,-392.397 895.233,-390.463"></path>
</g>
<!-- h1h2h3w1w2||w3B -->
<g id="node7" class="node"><title>h1h2h3w1w2||w3B</title>
<ellipse fill="none" stroke="black" cx="579" cy="-378" rx="85.5614" ry="18"></ellipse>
<text text-anchor="middle" x="579" y="-373.8" font-family="Times,serif" font-size="14.00">h1h2h3w1w2||w3B</text>
</g>
<!-- h1h2h3w1w2w3B||&#45;&#45;h1h2h3w1w2||w3B -->
<g id="edge12" class="edge"><title>h1h2h3w1w2w3B||--h1h2h3w1w2||w3B</title>
<path fill="none" stroke="black" d="M491.44,-432.765C509.857,-421.456 534.317,-406.437 552.703,-395.147"></path>
</g>
<!-- h1h2w1w2||h3w3B -->
<g id="node8" class="node"><title>h1h2w1w2||h3w3B</title>
<ellipse fill="none" stroke="black" cx="237" cy="-306" rx="85.5614" ry="18"></ellipse>
<text text-anchor="middle" x="237" y="-301.8" font-family="Times,serif" font-size="14.00">h1h2w1w2||h3w3B</text>
</g>
<!-- h1h2h3w1w2w3B||&#45;&#45;h1h2w1w2||h3w3B -->
<g id="edge14" class="edge"><title>h1h2h3w1w2w3B||--h1h2w1w2||h3w3B</title>
<path fill="none" stroke="black" d="M386.833,-442.77C322.648,-435.839 239.02,-422.009 218,-396 201.316,-375.356 214.712,-343.478 225.894,-324.001"></path>
</g>
<!-- h1h2h3w2||w1w3B -->
<g id="node9" class="node"><title>h1h2h3w2||w1w3B</title>
<ellipse fill="none" stroke="black" cx="768" cy="-378" rx="85.5614" ry="18"></ellipse>
<text text-anchor="middle" x="768" y="-373.8" font-family="Times,serif" font-size="14.00">h1h2h3w2||w1w3B</text>
</g>
<!-- h1h2h3w1w2w3B||&#45;&#45;h1h2h3w2||w1w3B -->
<g id="edge16" class="edge"><title>h1h2h3w1w2w3B||--h1h2h3w2||w1w3B</title>
<path fill="none" stroke="black" d="M520.223,-436.242C574.845,-423.623 657.977,-404.418 712.645,-391.788"></path>
</g>
<!-- h1h2h3w1||w2w3B -->
<g id="node10" class="node"><title>h1h2h3w1||w2w3B</title>
<ellipse fill="none" stroke="black" cx="497" cy="-234" rx="85.5614" ry="18"></ellipse>
<text text-anchor="middle" x="497" y="-229.8" font-family="Times,serif" font-size="14.00">h1h2h3w1||w2w3B</text>
</g>
<!-- h1h2h3w1w2w3B||&#45;&#45;h1h2h3w1||w2w3B -->
<g id="edge18" class="edge"><title>h1h2h3w1w2w3B||--h1h2h3w1||w2w3B</title>
<path fill="none" stroke="black" d="M463.735,-431.859C462.703,-413.878 461.872,-384.835 465,-360 469.956,-320.661 483.356,-275.965 491.154,-252.126"></path>
</g>
<!-- h1h2h3w2w3B||w1 -->
<g id="node18" class="node"><title>h1h2h3w2w3B||w1</title>
<ellipse fill="none" stroke="black" cx="915" cy="-306" rx="85.5614" ry="18"></ellipse>
<text text-anchor="middle" x="915" y="-301.8" font-family="Times,serif" font-size="14.00">h1h2h3w2w3B||w1</text>
</g>
<!-- h2h3w2w3||h1w1B&#45;&#45;h1h2h3w2w3B||w1 -->
<g id="edge20" class="edge"><title>h2h3w2w3||h1w1B--h1h2h3w2w3B||w1</title>
<path fill="none" stroke="black" d="M1099.25,-362.834C1059.18,-350.69 1001.73,-333.283 961.677,-321.144"></path>
</g>
<!-- h1h2h3w1w3B||w2 -->
<g id="node25" class="node"><title>h1h2h3w1w3B||w2</title>
<ellipse fill="none" stroke="black" cx="686" cy="-162" rx="85.5614" ry="18"></ellipse>
<text text-anchor="middle" x="686" y="-157.8" font-family="Times,serif" font-size="14.00">h1h2h3w1w3B||w2</text>
</g>
<!-- h1h3w1w3||h2w2B&#45;&#45;h1h2h3w1w3B||w2 -->
<g id="edge22" class="edge"><title>h1h3w1w3||h2w2B--h1h2h3w1w3B||w2</title>
<path fill="none" stroke="black" d="M611.253,-287.871C627.59,-260.578 659.35,-207.52 675.711,-180.189"></path>
</g>
<!-- h1h2h3w3||w1w2B&#45;&#45;h1h2h3w2w3B||w1 -->
<g id="edge24" class="edge"><title>h1h2h3w3||w1w2B--h1h2h3w2w3B||w1</title>
<path fill="none" stroke="black" d="M946.833,-360.055C940.327,-349.211 931.91,-335.183 925.365,-324.275"></path>
</g>
<!-- h1h2h3w3||w1w2B&#45;&#45;h1h2h3w1w3B||w2 -->
<g id="edge26" class="edge"><title>h1h2h3w3||w1w2B--h1h2h3w1w3B||w2</title>
<path fill="none" stroke="black" d="M901.964,-364.127C875.205,-355.882 843.774,-343.067 820,-324 774.997,-287.907 786.288,-259.151 748,-216 736.064,-202.548 720.712,-189.399 708.271,-179.563"></path>
</g>
<!-- h1h2h3w1w2B||w3 -->
<g id="node32" class="node"><title>h1h2h3w1w2B||w3</title>
<ellipse fill="none" stroke="black" cx="497" cy="-162" rx="85.5614" ry="18"></ellipse>
<text text-anchor="middle" x="497" y="-157.8" font-family="Times,serif" font-size="14.00">h1h2h3w1w2B||w3</text>
</g>
<!-- h1h2w1w2||h3w3B&#45;&#45;h1h2h3w1w2B||w3 -->
<g id="edge28" class="edge"><title>h1h2w1w2||h3w3B--h1h2h3w1w2B||w3</title>
<path fill="none" stroke="black" d="M266.32,-288.987C316.388,-261.642 417.793,-206.259 467.787,-178.955"></path>
</g>
<!-- h1h2h3w2||w1w3B&#45;&#45;h1h2h3w2w3B||w1 -->
<g id="edge30" class="edge"><title>h1h2h3w2||w1w3B--h1h2h3w2w3B||w1</title>
<path fill="none" stroke="black" d="M800.99,-361.291C825.199,-349.762 857.937,-334.173 882.12,-322.657"></path>
</g>
<!-- h1h2h3w2||w1w3B&#45;&#45;h1h2h3w1w2B||w3 -->
<g id="edge32" class="edge"><title>h1h2h3w2||w1w3B--h1h2h3w1w2B||w3</title>
<path fill="none" stroke="black" d="M756.321,-360.071C742.845,-341.231 719.392,-310.483 695,-288 643.139,-240.198 570.628,-199.774 529.278,-178.685"></path>
</g>
<!-- h1h2h3w1||w2w3B&#45;&#45;h1h2h3w1w3B||w2 -->
<g id="edge34" class="edge"><title>h1h2h3w1||w2w3B--h1h2h3w1w3B||w2</title>
<path fill="none" stroke="black" d="M537.545,-217.983C569.434,-206.173 613.65,-189.796 645.522,-177.992"></path>
</g>
<!-- h1h2h3w1||w2w3B&#45;&#45;h1h2h3w1w2B||w3 -->
<g id="edge36" class="edge"><title>h1h2h3w1||w2w3B--h1h2h3w1w2B||w3</title>
<path fill="none" stroke="black" d="M497,-215.697C497,-204.846 497,-190.917 497,-180.104"></path>
</g>
<!-- w1w2w3B||h1h2h3 -->
<g id="node11" class="node"><title>w1w2w3B||h1h2h3</title>
<ellipse fill="none" stroke="black" cx="1548" cy="-450" rx="85.5614" ry="18"></ellipse>
<text text-anchor="middle" x="1548" y="-445.8" font-family="Times,serif" font-size="14.00">w1w2w3B||h1h2h3</text>
</g>
<!-- w2w3||h1h2h3w1B -->
<g id="node12" class="node"><title>w2w3||h1h2h3w1B</title>
<ellipse fill="none" stroke="black" cx="1406" cy="-378" rx="85.5614" ry="18"></ellipse>
<text text-anchor="middle" x="1406" y="-373.8" font-family="Times,serif" font-size="14.00">w2w3||h1h2h3w1B</text>
</g>
<!-- w1w2w3B||h1h2h3&#45;&#45;w2w3||h1h2h3w1B -->
<g id="edge38" class="edge"><title>w1w2w3B||h1h2h3--w2w3||h1h2h3w1B</title>
<path fill="none" stroke="black" d="M1516.13,-433.291C1492.91,-421.843 1461.56,-406.391 1438.25,-394.899"></path>
</g>
<!-- w1w3||h1h2h3w2B -->
<g id="node13" class="node"><title>w1w3||h1h2h3w2B</title>
<ellipse fill="none" stroke="black" cx="1198" cy="-306" rx="85.5614" ry="18"></ellipse>
<text text-anchor="middle" x="1198" y="-301.8" font-family="Times,serif" font-size="14.00">w1w3||h1h2h3w2B</text>
</g>
<!-- w1w2w3B||h1h2h3&#45;&#45;w1w3||h1h2h3w2B -->
<g id="edge40" class="edge"><title>w1w2w3B||h1h2h3--w1w3||h1h2h3w2B</title>
<path fill="none" stroke="black" d="M1473.67,-441.044C1425.51,-433.831 1362.41,-420.428 1311,-396 1272.43,-377.673 1234.97,-344.12 1214.34,-323.858"></path>
</g>
<!-- w3||h1h2h3w1w2B -->
<g id="node14" class="node"><title>w3||h1h2h3w1w2B</title>
<ellipse fill="none" stroke="black" cx="1775" cy="-378" rx="85.5614" ry="18"></ellipse>
<text text-anchor="middle" x="1775" y="-373.8" font-family="Times,serif" font-size="14.00">w3||h1h2h3w1w2B</text>
</g>
<!-- w1w2w3B||h1h2h3&#45;&#45;w3||h1h2h3w1w2B -->
<g id="edge42" class="edge"><title>w1w2w3B||h1h2h3--w3||h1h2h3w1w2B</title>
<path fill="none" stroke="black" d="M1594.21,-434.75C1633.49,-422.638 1689.59,-405.337 1728.85,-393.23"></path>
</g>
<!-- w1w2||h1h2h3w3B -->
<g id="node15" class="node"><title>w1w2||h1h2h3w3B</title>
<ellipse fill="none" stroke="black" cx="1520" cy="-90" rx="85.5614" ry="18"></ellipse>
<text text-anchor="middle" x="1520" y="-85.8" font-family="Times,serif" font-size="14.00">w1w2||h1h2h3w3B</text>
</g>
<!-- w1w2w3B||h1h2h3&#45;&#45;w1w2||h1h2h3w3B -->
<g id="edge44" class="edge"><title>w1w2w3B||h1h2h3--w1w2||h1h2h3w3B</title>
<path fill="none" stroke="black" d="M1542.33,-431.728C1534.15,-405.21 1520,-352.732 1520,-307 1520,-307 1520,-307 1520,-233 1520,-187.885 1520,-134.708 1520,-108.049"></path>
</g>
<!-- w2||h1h2h3w1w3B -->
<g id="node16" class="node"><title>w2||h1h2h3w1w3B</title>
<ellipse fill="none" stroke="black" cx="2069" cy="-378" rx="85.5614" ry="18"></ellipse>
<text text-anchor="middle" x="2069" y="-373.8" font-family="Times,serif" font-size="14.00">w2||h1h2h3w1w3B</text>
</g>
<!-- w1w2w3B||h1h2h3&#45;&#45;w2||h1h2h3w1w3B -->
<g id="edge46" class="edge"><title>w1w2w3B||h1h2h3--w2||h1h2h3w1w3B</title>
<path fill="none" stroke="black" d="M1617.99,-439.596C1717.62,-426.21 1899.27,-401.804 1998.94,-388.413"></path>
</g>
<!-- w1||h1h2h3w2w3B -->
<g id="node17" class="node"><title>w1||h1h2h3w2w3B</title>
<ellipse fill="none" stroke="black" cx="1746" cy="-234" rx="85.5614" ry="18"></ellipse>
<text text-anchor="middle" x="1746" y="-229.8" font-family="Times,serif" font-size="14.00">w1||h1h2h3w2w3B</text>
</g>
<!-- w1w2w3B||h1h2h3&#45;&#45;w1||h1h2h3w2w3B -->
<g id="edge48" class="edge"><title>w1w2w3B||h1h2h3--w1||h1h2h3w2w3B</title>
<path fill="none" stroke="black" d="M1563.54,-432.208C1600.55,-392.204 1693.6,-291.639 1730.54,-251.714"></path>
</g>
<!-- h2h3w2w3B||h1w1 -->
<g id="node20" class="node"><title>h2h3w2w3B||h1w1</title>
<ellipse fill="none" stroke="black" cx="1406" cy="-306" rx="85.5614" ry="18"></ellipse>
<text text-anchor="middle" x="1406" y="-301.8" font-family="Times,serif" font-size="14.00">h2h3w2w3B||h1w1</text>
</g>
<!-- w2w3||h1h2h3w1B&#45;&#45;h2h3w2w3B||h1w1 -->
<g id="edge50" class="edge"><title>w2w3||h1h2h3w1B--h2h3w2w3B||h1w1</title>
<path fill="none" stroke="black" d="M1406,-359.697C1406,-348.846 1406,-334.917 1406,-324.104"></path>
</g>
<!-- h1h3w1w3B||h2w2 -->
<g id="node26" class="node"><title>h1h3w1w3B||h2w2</title>
<ellipse fill="none" stroke="black" cx="1292" cy="-162" rx="85.5614" ry="18"></ellipse>
<text text-anchor="middle" x="1292" y="-157.8" font-family="Times,serif" font-size="14.00">h1h3w1w3B||h2w2</text>
</g>
<!-- w1w3||h1h2h3w2B&#45;&#45;h1h3w1w3B||h2w2 -->
<g id="edge52" class="edge"><title>w1w3||h1h2h3w2B--h1h3w1w3B||h2w2</title>
<path fill="none" stroke="black" d="M1162.42,-289.627C1147.05,-280.976 1130.63,-268.543 1122,-252 1114.6,-237.815 1112.52,-228.888 1122,-216 1135.1,-198.195 1186.61,-183.744 1229.53,-174.456"></path>
</g>
<!-- w2w3B||h1h2h3w1 -->
<g id="node23" class="node"><title>w2w3B||h1h2h3w1</title>
<ellipse fill="none" stroke="black" cx="1974" cy="-306" rx="85.5614" ry="18"></ellipse>
<text text-anchor="middle" x="1974" y="-301.8" font-family="Times,serif" font-size="14.00">w2w3B||h1h2h3w1</text>
</g>
<!-- w3||h1h2h3w1w2B&#45;&#45;w2w3B||h1h2h3w1 -->
<g id="edge54" class="edge"><title>w3||h1h2h3w1w2B--w2w3B||h1h2h3w1</title>
<path fill="none" stroke="black" d="M1817.2,-362.155C1851.09,-350.235 1898.42,-333.585 1932.2,-321.704"></path>
</g>
<!-- w1w3B||h1h2h3w2 -->
<g id="node28" class="node"><title>w1w3B||h1h2h3w2</title>
<ellipse fill="none" stroke="black" cx="1634" cy="-162" rx="85.5614" ry="18"></ellipse>
<text text-anchor="middle" x="1634" y="-157.8" font-family="Times,serif" font-size="14.00">w1w3B||h1h2h3w2</text>
</g>
<!-- w3||h1h2h3w1w2B&#45;&#45;w1w3B||h1h2h3w2 -->
<g id="edge56" class="edge"><title>w3||h1h2h3w1w2B--w1w3B||h1h2h3w2</title>
<path fill="none" stroke="black" d="M1751.63,-360.48C1723.06,-338.95 1675.51,-298.512 1651,-252 1638.9,-229.038 1635.33,-198.703 1634.33,-180.038"></path>
</g>
<!-- h3w3B||h1h2w1w2 -->
<g id="node30" class="node"><title>h3w3B||h1h2w1w2</title>
<ellipse fill="none" stroke="black" cx="2201" cy="-162" rx="85.5614" ry="18"></ellipse>
<text text-anchor="middle" x="2201" y="-157.8" font-family="Times,serif" font-size="14.00">h3w3B||h1h2w1w2</text>
</g>
<!-- w3||h1h2h3w1w2B&#45;&#45;h3w3B||h1h2w1w2 -->
<g id="edge58" class="edge"><title>w3||h1h2h3w1w2B--h3w3B||h1h2w1w2</title>
<path fill="none" stroke="black" d="M1790.93,-360.293C1810.25,-340.799 1844.53,-308.616 1879,-288 1968.67,-234.36 2085.46,-195.829 2150.9,-176.69"></path>
</g>
<!-- h1h2w1w2B||h3w3 -->
<g id="node33" class="node"><title>h1h2w1w2B||h3w3</title>
<ellipse fill="none" stroke="black" cx="1406" cy="-18" rx="85.5614" ry="18"></ellipse>
<text text-anchor="middle" x="1406" y="-13.8" font-family="Times,serif" font-size="14.00">h1h2w1w2B||h3w3</text>
</g>
<!-- w1w2||h1h2h3w3B&#45;&#45;h1h2w1w2B||h3w3 -->
<g id="edge60" class="edge"><title>w1w2||h1h2h3w3B--h1h2w1w2B||h3w3</title>
<path fill="none" stroke="black" d="M1493.56,-72.7646C1475.14,-61.456 1450.68,-46.4367 1432.3,-35.1473"></path>
</g>
<!-- w2||h1h2h3w1w3B&#45;&#45;w2w3B||h1h2h3w1 -->
<g id="edge62" class="edge"><title>w2||h1h2h3w1w3B--w2w3B||h1h2h3w1</title>
<path fill="none" stroke="black" d="M2046.49,-360.411C2031.34,-349.252 2011.46,-334.604 1996.35,-323.47"></path>
</g>
<!-- w1w2B||h1h2h3w3 -->
<g id="node34" class="node"><title>w1w2B||h1h2h3w3</title>
<ellipse fill="none" stroke="black" cx="1823" cy="-162" rx="85.5614" ry="18"></ellipse>
<text text-anchor="middle" x="1823" y="-157.8" font-family="Times,serif" font-size="14.00">w1w2B||h1h2h3w3</text>
</g>
<!-- w2||h1h2h3w1w3B&#45;&#45;w1w2B||h1h2h3w3 -->
<g id="edge64" class="edge"><title>w2||h1h2h3w1w3B--w1w2B||h1h2h3w3</title>
<path fill="none" stroke="black" d="M2073.73,-359.817C2077.93,-340.749 2081.52,-309.799 2068,-288 2027.54,-222.767 1941.29,-190.171 1882.71,-174.945"></path>
</g>
<!-- h2w2B||h1h3w1w3 -->
<g id="node36" class="node"><title>h2w2B||h1h3w1w3</title>
<ellipse fill="none" stroke="black" cx="2957" cy="-162" rx="85.5614" ry="18"></ellipse>
<text text-anchor="middle" x="2957" y="-157.8" font-family="Times,serif" font-size="14.00">h2w2B||h1h3w1w3</text>
</g>
<!-- w2||h1h2h3w1w3B&#45;&#45;h2w2B||h1h3w1w3 -->
<g id="edge66" class="edge"><title>w2||h1h2h3w1w3B--h2w2B||h1h3w1w3</title>
<path fill="none" stroke="black" d="M2122.88,-364.015C2281.36,-325.823 2744.73,-214.156 2903.16,-175.975"></path>
</g>
<!-- w1||h1h2h3w2w3B&#45;&#45;w1w3B||h1h2h3w2 -->
<g id="edge68" class="edge"><title>w1||h1h2h3w2w3B--w1w3B||h1h2h3w2</title>
<path fill="none" stroke="black" d="M1720.02,-216.765C1702.06,-205.537 1678.24,-190.651 1660.22,-179.39"></path>
</g>
<!-- w1||h1h2h3w2w3B&#45;&#45;w1w2B||h1h2h3w3 -->
<g id="edge70" class="edge"><title>w1||h1h2h3w2w3B--w1w2B||h1h2h3w3</title>
<path fill="none" stroke="black" d="M1764.25,-216.411C1776.43,-205.333 1792.4,-190.816 1804.62,-179.713"></path>
</g>
<!-- h1w1B||h2h3w2w3 -->
<g id="node39" class="node"><title>h1w1B||h2h3w2w3</title>
<ellipse fill="none" stroke="black" cx="2012" cy="-162" rx="85.5614" ry="18"></ellipse>
<text text-anchor="middle" x="2012" y="-157.8" font-family="Times,serif" font-size="14.00">h1w1B||h2h3w2w3</text>
</g>
<!-- w1||h1h2h3w2w3B&#45;&#45;h1w1B||h2h3w2w3 -->
<g id="edge72" class="edge"><title>w1||h1h2h3w2w3B--h1w1B||h2h3w2w3</title>
<path fill="none" stroke="black" d="M1797.29,-219.503C1844.39,-207.108 1913.82,-188.838 1960.87,-176.455"></path>
</g>
<!-- h1h2h3||w1w2w3B -->
<g id="node19" class="node"><title>h1h2h3||w1w2w3B</title>
<ellipse fill="none" stroke="black" cx="904" cy="-234" rx="85.5614" ry="18"></ellipse>
<text text-anchor="middle" x="904" y="-229.8" font-family="Times,serif" font-size="14.00">h1h2h3||w1w2w3B</text>
</g>
<!-- h1h2h3w2w3B||w1&#45;&#45;h1h2h3||w1w2w3B -->
<g id="edge74" class="edge"><title>h1h2h3w2w3B||w1--h1h2h3||w1w2w3B</title>
<path fill="none" stroke="black" d="M912.281,-287.697C910.576,-276.846 908.387,-262.917 906.688,-252.104"></path>
</g>
<!-- h1h2h3||w1w2w3B&#45;&#45;h1h2h3w1w3B||w2 -->
<g id="edge76" class="edge"><title>h1h2h3||w1w2w3B--h1h2h3w1w3B||w2</title>
<path fill="none" stroke="black" d="M859.095,-218.581C821.577,-206.534 768.348,-189.442 730.847,-177.4"></path>
</g>
<!-- h1h2h3w3B||w1w2 -->
<g id="node29" class="node"><title>h1h2h3w3B||w1w2</title>
<ellipse fill="none" stroke="black" cx="914" cy="-162" rx="85.5614" ry="18"></ellipse>
<text text-anchor="middle" x="914" y="-157.8" font-family="Times,serif" font-size="14.00">h1h2h3w3B||w1w2</text>
</g>
<!-- h1h2h3||w1w2w3B&#45;&#45;h1h2h3w3B||w1w2 -->
<g id="edge78" class="edge"><title>h1h2h3||w1w2w3B--h1h2h3w3B||w1w2</title>
<path fill="none" stroke="black" d="M906.472,-215.697C908.022,-204.846 910.012,-190.917 911.557,-180.104"></path>
</g>
<!-- h1h2h3||w1w2w3B&#45;&#45;h1h2h3w1w2B||w3 -->
<g id="edge80" class="edge"><title>h1h2h3||w1w2w3B--h1h2h3w1w2B||w3</title>
<path fill="none" stroke="black" d="M839.222,-222.248C775.9,-211.687 676.775,-195.018 591,-180 580.709,-178.198 569.79,-176.254 559.175,-174.346"></path>
</g>
<!-- h1h2h3w2B||w1w3 -->
<g id="node35" class="node"><title>h1h2h3w2B||w1w3</title>
<ellipse fill="none" stroke="black" cx="1103" cy="-162" rx="85.5614" ry="18"></ellipse>
<text text-anchor="middle" x="1103" y="-157.8" font-family="Times,serif" font-size="14.00">h1h2h3w2B||w1w3</text>
</g>
<!-- h1h2h3||w1w2w3B&#45;&#45;h1h2h3w2B||w1w3 -->
<g id="edge82" class="edge"><title>h1h2h3||w1w2w3B--h1h2h3w2B||w1w3</title>
<path fill="none" stroke="black" d="M946.203,-218.155C980.088,-206.235 1027.42,-189.585 1061.2,-177.704"></path>
</g>
<!-- h1h2h3w1B||w2w3 -->
<g id="node38" class="node"><title>h1h2h3w1B||w2w3</title>
<ellipse fill="none" stroke="black" cx="1009" cy="-18" rx="85.5614" ry="18"></ellipse>
<text text-anchor="middle" x="1009" y="-13.8" font-family="Times,serif" font-size="14.00">h1h2h3w1B||w2w3</text>
</g>
<!-- h1h2h3||w1w2w3B&#45;&#45;h1h2h3w1B||w2w3 -->
<g id="edge84" class="edge"><title>h1h2h3||w1w2w3B--h1h2h3w1B||w2w3</title>
<path fill="none" stroke="black" d="M862.989,-217.948C846.214,-209.523 828.535,-197.183 819,-180 811.236,-166.01 811.407,-158.084 819,-144 849.823,-86.827 919.486,-51.5169 965.346,-33.5796"></path>
</g>
<!-- h3w3||h1h2w1w2B -->
<g id="node21" class="node"><title>h3w3||h1h2w1w2B</title>
<ellipse fill="none" stroke="black" cx="1217" cy="-234" rx="85.5614" ry="18"></ellipse>
<text text-anchor="middle" x="1217" y="-229.8" font-family="Times,serif" font-size="14.00">h3w3||h1h2w1w2B</text>
</g>
<!-- h2h3w2w3B||h1w1&#45;&#45;h3w3||h1h2w1w2B -->
<g id="edge86" class="edge"><title>h2h3w2w3B||h1w1--h3w3||h1h2w1w2B</title>
<path fill="none" stroke="black" d="M1365.45,-289.983C1333.57,-278.173 1289.35,-261.796 1257.48,-249.992"></path>
</g>
<!-- h2w2||h1h3w1w3B -->
<g id="node22" class="node"><title>h2w2||h1h3w1w3B</title>
<ellipse fill="none" stroke="black" cx="1406" cy="-234" rx="85.5614" ry="18"></ellipse>
<text text-anchor="middle" x="1406" y="-229.8" font-family="Times,serif" font-size="14.00">h2w2||h1h3w1w3B</text>
</g>
<!-- h2h3w2w3B||h1w1&#45;&#45;h2w2||h1h3w1w3B -->
<g id="edge88" class="edge"><title>h2h3w2w3B||h1w1--h2w2||h1h3w1w3B</title>
<path fill="none" stroke="black" d="M1406,-287.697C1406,-276.846 1406,-262.917 1406,-252.104"></path>
</g>
<!-- h3w3||h1h2w1w2B&#45;&#45;h1h3w1w3B||h2w2 -->
<g id="edge90" class="edge"><title>h3w3||h1h2w1w2B--h1h3w1w3B||h2w2</title>
<path fill="none" stroke="black" d="M1235.16,-216.055C1246.95,-205.049 1262.25,-190.764 1274.01,-179.789"></path>
</g>
<!-- h3w3||h1h2w1w2B&#45;&#45;h1h2h3w3B||w1w2 -->
<g id="edge92" class="edge"><title>h3w3||h1h2w1w2B--h1h2h3w3B||w1w2</title>
<path fill="none" stroke="black" d="M1161.78,-220.242C1107.16,-207.623 1024.02,-188.418 969.355,-175.788"></path>
</g>
<!-- h2w2||h1h3w1w3B&#45;&#45;h1h2w1w2B||h3w3 -->
<g id="edge94" class="edge"><title>h2w2||h1h3w1w3B--h1h2w1w2B||h3w3</title>
<path fill="none" stroke="black" d="M1406,-215.849C1406,-175.78 1406,-76.3826 1406,-36.2325"></path>
</g>
<!-- h2w2||h1h3w1w3B&#45;&#45;h1h2h3w2B||w1w3 -->
<g id="edge96" class="edge"><title>h2w2||h1h3w1w3B--h1h2h3w2B||w1w3</title>
<path fill="none" stroke="black" d="M1350.78,-220.242C1296.16,-207.623 1213.02,-188.418 1158.35,-175.788"></path>
</g>
<!-- ||h1h2h3w1w2w3B -->
<g id="node24" class="node"><title>||h1h2h3w1w2w3B</title>
<ellipse fill="none" stroke="black" cx="2202" cy="-234" rx="85.5614" ry="18"></ellipse>
<text text-anchor="middle" x="2202" y="-229.8" font-family="Times,serif" font-size="14.00">||h1h2h3w1w2w3B</text>
</g>
<!-- w2w3B||h1h2h3w1&#45;&#45;||h1h2h3w1w2w3B -->
<g id="edge98" class="edge"><title>w2w3B||h1h2h3w1--||h1h2h3w1w2w3B</title>
<path fill="none" stroke="black" d="M2020.14,-290.834C2059.57,-278.73 2116.02,-261.398 2155.54,-249.264"></path>
</g>
<!-- ||h1h2h3w1w2w3B&#45;&#45;w1w3B||h1h2h3w2 -->
<g id="edge100" class="edge"><title>||h1h2h3w1w2w3B--w1w3B||h1h2h3w2</title>
<path fill="none" stroke="black" d="M2125.03,-226.007C2031.09,-217.099 1867.49,-200.389 1728,-180 1717.33,-178.441 1706.02,-176.578 1695.08,-174.665"></path>
</g>
<!-- ||h1h2h3w1w2w3B&#45;&#45;h3w3B||h1h2w1w2 -->
<g id="edge102" class="edge"><title>||h1h2h3w1w2w3B--h3w3B||h1h2w1w2</title>
<path fill="none" stroke="black" d="M2201.75,-215.697C2201.6,-204.846 2201.4,-190.917 2201.24,-180.104"></path>
</g>
<!-- w3B||h1h2h3w1w2 -->
<g id="node31" class="node"><title>w3B||h1h2h3w1w2</title>
<ellipse fill="none" stroke="black" cx="2390" cy="-162" rx="85.5614" ry="18"></ellipse>
<text text-anchor="middle" x="2390" y="-157.8" font-family="Times,serif" font-size="14.00">w3B||h1h2h3w1w2</text>
</g>
<!-- ||h1h2h3w1w2w3B&#45;&#45;w3B||h1h2h3w1w2 -->
<g id="edge104" class="edge"><title>||h1h2h3w1w2w3B--w3B||h1h2h3w1w2</title>
<path fill="none" stroke="black" d="M2242.33,-217.983C2274.05,-206.173 2318.03,-189.796 2349.74,-177.992"></path>
</g>
<!-- ||h1h2h3w1w2w3B&#45;&#45;w1w2B||h1h2h3w3 -->
<g id="edge106" class="edge"><title>||h1h2h3w1w2w3B--w1w2B||h1h2h3w3</title>
<path fill="none" stroke="black" d="M2139.84,-221.519C2069.38,-208.506 1955.22,-187.42 1884.88,-174.429"></path>
</g>
<!-- ||h1h2h3w1w2w3B&#45;&#45;h2w2B||h1h3w1w3 -->
<g id="edge108" class="edge"><title>||h1h2h3w1w2w3B--h2w2B||h1h3w1w3</title>
<path fill="none" stroke="black" d="M2284.07,-228.973C2409.14,-222.257 2654.8,-206.794 2862,-180 2873.22,-178.55 2885.12,-176.682 2896.57,-174.718"></path>
</g>
<!-- w2B||h1h2h3w1w3 -->
<g id="node37" class="node"><title>w2B||h1h2h3w1w3</title>
<ellipse fill="none" stroke="black" cx="2579" cy="-162" rx="85.5614" ry="18"></ellipse>
<text text-anchor="middle" x="2579" y="-157.8" font-family="Times,serif" font-size="14.00">w2B||h1h2h3w1w3</text>
</g>
<!-- ||h1h2h3w1w2w3B&#45;&#45;w2B||h1h2h3w1w3 -->
<g id="edge110" class="edge"><title>||h1h2h3w1w2w3B--w2B||h1h2h3w1w3</title>
<path fill="none" stroke="black" d="M2263.83,-221.519C2333.81,-208.526 2447.14,-187.483 2517.13,-174.487"></path>
</g>
<!-- ||h1h2h3w1w2w3B&#45;&#45;h1w1B||h2h3w2w3 -->
<g id="edge112" class="edge"><title>||h1h2h3w1w2w3B--h1w1B||h2h3w2w3</title>
<path fill="none" stroke="black" d="M2161.24,-217.983C2129.07,-206.132 2084.43,-189.685 2052.37,-177.872"></path>
</g>
<!-- w1B||h1h2h3w2w3 -->
<g id="node40" class="node"><title>w1B||h1h2h3w2w3</title>
<ellipse fill="none" stroke="black" cx="2768" cy="-162" rx="85.5614" ry="18"></ellipse>
<text text-anchor="middle" x="2768" y="-157.8" font-family="Times,serif" font-size="14.00">w1B||h1h2h3w2w3</text>
</g>
<!-- ||h1h2h3w1w2w3B&#45;&#45;w1B||h1h2h3w2w3 -->
<g id="edge114" class="edge"><title>||h1h2h3w1w2w3B--w1B||h1h2h3w2w3</title>
<path fill="none" stroke="black" d="M2278.47,-225.937C2371.81,-216.961 2534.37,-200.182 2673,-180 2683.94,-178.407 2695.56,-176.505 2706.77,-174.56"></path>
</g>
<!-- h1w1||h2h3w2w3B -->
<g id="node27" class="node"><title>h1w1||h2h3w2w3B</title>
<ellipse fill="none" stroke="black" cx="1292" cy="-90" rx="85.5614" ry="18"></ellipse>
<text text-anchor="middle" x="1292" y="-85.8" font-family="Times,serif" font-size="14.00">h1w1||h2h3w2w3B</text>
</g>
<!-- h1h3w1w3B||h2w2&#45;&#45;h1w1||h2h3w2w3B -->
<g id="edge116" class="edge"><title>h1h3w1w3B||h2w2--h1w1||h2h3w2w3B</title>
<path fill="none" stroke="black" d="M1292,-143.697C1292,-132.846 1292,-118.917 1292,-108.104"></path>
</g>
<!-- h1w1||h2h3w2w3B&#45;&#45;h1h2w1w2B||h3w3 -->
<g id="edge118" class="edge"><title>h1w1||h2h3w2w3B--h1h2w1w2B||h3w3</title>
<path fill="none" stroke="black" d="M1318.44,-72.7646C1336.86,-61.456 1361.32,-46.4367 1379.7,-35.1473"></path>
</g>
<!-- h1w1||h2h3w2w3B&#45;&#45;h1h2h3w1B||w2w3 -->
<g id="edge120" class="edge"><title>h1w1||h2h3w2w3B--h1h2h3w1B||w2w3</title>
<path fill="none" stroke="black" d="M1238.77,-75.8335C1188.33,-63.3582 1112.99,-44.7212 1062.47,-32.2262"></path>
</g>
</g>
</svg>
